<svg width="157.000000" height="94.000000" viewBox="0 0 157 94" fill="none" xmlns="http://www.w3.org/2000/svg" xmlns:xlink="http://www.w3.org/1999/xlink">
	<desc>
			Created with Pixso.
	</desc>
	<defs/>
	<path id="Vector" d="M154.695 12.4138L0 12.4138L0 6.20691C0 2.77893 4.0658 0 9.0813 0L145.614 0C150.63 0 154.695 2.77893 154.695 6.20691L154.695 12.4138ZM31.3148 9.41736L18.1626 9.41736C16.4331 9.41736 15.0311 8.45911 15.0311 7.2771L15.0311 5.13672C15.0311 3.95471 16.4331 2.99646 18.1626 2.99646L31.3148 2.99646C33.0443 2.99646 34.4463 3.95471 34.4463 5.13672L34.4463 7.2771C34.4463 8.45911 33.0443 9.41736 31.3148 9.41736ZM53.2352 9.41736L66.3875 9.41736C68.1169 9.41736 69.519 8.45911 69.519 7.2771L69.519 5.13672C69.519 3.95471 68.1169 2.99646 66.3875 2.99646L53.2352 2.99646C51.5057 2.99646 50.1038 3.95471 50.1038 5.13672L50.1038 7.2771C50.1038 8.45911 51.5057 9.41736 53.2352 9.41736ZM101.46 9.41736L88.3079 9.41736C86.5785 9.41736 85.1764 8.45911 85.1764 7.2771L85.1764 5.13672C85.1764 3.95471 86.5785 2.99646 88.3079 2.99646L101.46 2.99646C103.19 2.99646 104.592 3.95471 104.592 5.13672L104.592 7.2771C104.592 8.45911 103.19 9.41736 101.46 9.41736ZM123.38 9.41736L136.533 9.41736C138.262 9.41736 139.664 8.45911 139.664 7.2771L139.664 5.13672C139.664 3.95471 138.262 2.99646 136.533 2.99646L123.38 2.99646C121.651 2.99646 120.249 3.95471 120.249 5.13672L120.249 7.2771C120.249 8.45911 121.651 9.41736 123.38 9.41736ZM130.807 39.7883C131.114 38.7102 131.268 37.5911 131.268 36.4309C131.268 35.2708 131.114 34.1575 130.807 33.0911C130.511 32.0129 130.086 31.011 129.53 30.0852C128.974 29.1477 128.312 28.2981 127.543 27.5364C126.775 26.7629 125.917 26.1008 124.971 25.55C124.025 24.9993 123.008 24.5774 121.921 24.2844C120.845 23.9797 119.721 23.8274 118.551 23.8274L110.888 23.8274L110.888 49.0344L118.551 49.0344C119.721 49.0344 120.845 48.8879 121.921 48.595C123.008 48.2903 124.025 47.8625 124.971 47.3118C125.917 46.761 126.775 46.1047 127.543 45.343C128.312 44.5696 128.974 43.72 129.53 42.7942C130.086 41.8567 130.511 40.8547 130.807 39.7883ZM154.397 44.4114C154.799 43.4973 155 42.5188 155 41.4758C155 41.0071 154.935 40.5266 154.805 40.0344C154.687 39.5305 154.509 39.05 154.273 38.593C154.036 38.136 153.752 37.72 153.421 37.345C153.09 36.9583 152.718 36.6536 152.304 36.4309Q152.907 36.0618 153.404 35.4993C153.735 35.1243 154.019 34.7083 154.255 34.2512C154.492 33.7942 154.675 33.3196 154.805 32.8274C154.935 32.3352 155 31.8547 155 31.386C155 30.343 154.799 29.3645 154.397 28.4504C153.995 27.5364 153.445 26.7395 152.747 26.0598C152.062 25.3684 151.257 24.8235 150.335 24.425Q150.031 24.2936 149.717 24.191L149.716 24.1908L149.715 24.1904Q148.603 23.8274 147.373 23.8274L134.656 23.8274L134.656 49.0344L147.373 49.0344Q148.603 49.0344 149.715 48.6715L149.716 48.6711L149.718 48.6704Q150.031 48.568 150.335 48.4368C151.257 48.0383 152.062 47.4993 152.747 46.8196C153.445 46.1282 153.995 45.3254 154.397 44.4114ZM125.574 33.4954C125.976 34.4094 126.177 35.3879 126.177 36.4309C126.177 37.4739 125.976 38.4583 125.574 39.384C125.184 40.2981 124.64 41.1008 123.943 41.7922C123.257 42.4719 122.447 43.011 121.513 43.4094C120.59 43.7961 119.603 43.9895 118.551 43.9895L116.014 43.9895L116.014 28.8723L118.551 28.8723C119.603 28.8723 120.59 29.0715 121.513 29.47C122.447 29.8684 123.257 30.4133 123.943 31.1047C124.64 31.7844 125.184 32.5813 125.574 33.4954ZM147.373 33.9172L139.746 33.9172L139.746 28.8723L147.373 28.8723C147.728 28.8723 148.059 28.9368 148.366 29.0657C148.674 29.1946 148.94 29.3762 149.165 29.6106C149.401 29.8333 149.584 30.0969 149.714 30.4016Q149.741 30.4647 149.765 30.5291L149.765 30.5294Q149.91 30.9316 149.91 31.386Q149.91 31.7451 149.819 32.0797Q149.777 32.2366 149.714 32.3879C149.584 32.6926 149.401 32.9622 149.165 33.1965C148.94 33.4192 148.674 33.595 148.366 33.7239C148.059 33.8528 147.728 33.9172 147.373 33.9172ZM147.373 43.9895L139.746 43.9895L139.746 38.9622L147.373 38.9622C147.728 38.9622 148.059 39.0266 148.366 39.1555C148.674 39.2844 148.94 39.4661 149.165 39.7004C149.401 39.9231 149.584 40.1868 149.714 40.4915C149.844 40.7961 149.91 41.1243 149.91 41.4758Q149.91 41.9305 149.765 42.3329Q149.741 42.3972 149.714 42.4602C149.584 42.7649 149.401 43.0344 149.165 43.2688C148.94 43.4915 148.674 43.6672 148.366 43.7961C148.059 43.925 147.728 43.9895 147.373 43.9895ZM0 59.5862L154.695 59.5862L154.695 65.7931C154.695 69.2211 150.63 72 145.614 72L9.0813 72C4.0658 72 0 69.2211 0 65.7931L0 59.5862ZM18.1626 62.5826L31.3148 62.5826C33.0443 62.5826 34.4463 63.5409 34.4463 64.7229L34.4463 66.8633C34.4463 68.0453 33.0443 69.0035 31.3148 69.0035L18.1626 69.0035C16.4331 69.0035 15.0311 68.0453 15.0311 66.8633L15.0311 64.7229C15.0311 63.5409 16.4331 62.5826 18.1626 62.5826ZM66.3875 62.5826L53.2352 62.5826C51.5057 62.5826 50.1038 63.5409 50.1038 64.7229L50.1038 66.8633C50.1038 68.0453 51.5057 69.0035 53.2352 69.0035L66.3875 69.0035C68.1169 69.0035 69.519 68.0453 69.519 66.8633L69.519 64.7229C69.519 63.5409 68.1169 62.5826 66.3875 62.5826ZM88.3079 62.5826L101.46 62.5826C103.19 62.5826 104.592 63.5409 104.592 64.7229L104.592 66.8633C104.592 68.0453 103.19 69.0035 101.46 69.0035L88.3079 69.0035C86.5785 69.0035 85.1764 68.0453 85.1764 66.8633L85.1764 64.7229C85.1764 63.5409 86.5785 62.5826 88.3079 62.5826ZM136.533 62.5826L123.38 62.5826C121.651 62.5826 120.249 63.5409 120.249 64.7229L120.249 66.8633C120.249 68.0453 121.651 69.0035 123.38 69.0035L136.533 69.0035C138.262 69.0035 139.664 68.0453 139.664 66.8633L139.664 64.7229C139.664 63.5409 138.262 62.5826 136.533 62.5826Z" fill="#FFFFFF" fill-opacity="1.000000" fill-rule="evenodd"/>
	<path id="Vector" d="M25.4323 49.4364L20.3564 49.4364L20.3564 30.8182C20.3564 30.4546 20.2854 30.1151 20.1434 29.8C20.0133 29.4849 19.83 29.2122 19.5933 28.9818C19.3685 28.7394 19.1023 28.5515 18.7947 28.4182C18.4871 28.2848 18.1558 28.2181 17.8008 28.2181C17.4458 28.2181 17.1145 28.2848 16.8069 28.4182C16.4993 28.5515 16.2272 28.7394 15.9906 28.9818C15.7657 29.2122 15.5883 29.4849 15.4581 29.8C15.328 30.1151 15.2629 30.4546 15.2629 30.8182L15.2629 49.4364L10.1693 49.4364L10.1693 30.8182C10.1693 30.4546 10.1042 30.1151 9.97412 29.8C9.84399 29.4849 9.66064 29.2122 9.42395 28.9818C9.1991 28.7394 8.93298 28.5515 8.62537 28.4182Q8.55139 28.3861 8.47571 28.3593L8.47546 28.3591L8.47522 28.359L8.4751 28.359Q8.07825 28.2181 7.63147 28.2181Q7.18469 28.2181 6.78784 28.359L6.78784 28.359Q6.71179 28.386 6.63757 28.4182C6.32996 28.5515 6.05786 28.7394 5.82117 28.9818Q5.78503 29.0189 5.75049 29.0574L5.75037 29.0576L5.75024 29.0576Q5.46301 29.3782 5.28882 29.8C5.15857 30.1151 5.09351 30.4546 5.09351 30.8182L5.09351 49.4364L0 49.4364L0 30.8182Q0 29.4508 0.418213 28.2263L0.418213 28.2263L0.418213 28.2262L0.418213 28.2261Q0.494873 28.0016 0.585693 27.7819C0.987915 26.8242 1.53223 25.9939 2.21838 25.2909Q2.69678 24.8009 3.24548 24.4095Q3.89795 23.9441 4.6499 23.6182Q5.10168 23.4189 5.57202 23.2839L5.57202 23.2839L5.57202 23.2839L5.57214 23.2839Q6.56104 23 7.63147 23Q8.37329 23 9.08606 23.1439Q9.73743 23.2755 10.3646 23.5272Q10.8506 23.7157 11.3 23.9688L11.3002 23.9688L11.3004 23.969L11.3005 23.969Q12.0656 24.3999 12.725 25.0182Q13.4738 24.3162 14.3495 23.8558L14.3497 23.8557L14.3497 23.8557L14.3497 23.8556Q14.6986 23.6722 15.0676 23.5272Q15.6947 23.2755 16.3461 23.1439L16.3464 23.1439L16.3464 23.1439Q17.0591 23 17.8008 23C18.8538 23 19.8418 23.2061 20.7646 23.6182Q21.689 24.0138 22.4513 24.6147L22.4514 24.6149L22.4517 24.615Q22.8455 24.9255 23.196 25.2909C23.8942 25.9939 24.4384 26.8242 24.8289 27.7819C25.2311 28.7273 25.4323 29.7394 25.4323 30.8182L25.4323 49.4364ZM54.9287 36.509C54.9287 37.7455 54.7689 38.9395 54.4495 40.0909C54.1418 41.2303 53.7041 42.303 53.1362 43.3091C52.5682 44.303 51.882 45.2122 51.0775 46.0364C50.2729 46.8606 49.3855 47.5697 48.4153 48.1636C47.4451 48.7455 46.3981 49.194 45.274 49.509C44.15 49.8364 42.9846 50 41.7777 50C40.5709 50 39.4055 49.8364 38.2815 49.509C37.1693 49.194 36.1222 48.7455 35.1401 48.1636C34.1699 47.5697 33.2826 46.8606 32.478 46.0364C31.6735 45.2122 30.9813 44.303 30.4016 43.3091C29.8336 42.303 29.3899 41.2303 29.0704 40.0909C28.7628 38.9395 28.609 37.7455 28.609 36.509C28.609 35.2727 28.7628 34.0787 29.0704 32.9272C29.3899 31.7758 29.8336 30.703 30.4016 29.7091C30.9813 28.7152 31.6735 27.806 32.478 26.9818C33.2826 26.1576 34.1699 25.4546 35.1401 24.8727C36.1222 24.2909 37.1693 23.8424 38.2815 23.5272C39.4055 23.2 40.5709 23.0364 41.7777 23.0364C42.9846 23.0364 44.15 23.2 45.274 23.5272C46.3981 23.8424 47.4451 24.2909 48.4153 24.8727C49.3855 25.4546 50.2729 26.1576 51.0775 26.9818C51.882 27.806 52.5682 28.7152 53.1362 29.7091C53.7041 30.703 54.1418 31.7758 54.4495 32.9272C54.7689 34.0787 54.9287 35.2727 54.9287 36.509ZM68.9137 49.4364L77.2728 23.3636L71.4517 23.3636L66.3582 40.7637L61.2823 23.3636L55.4966 23.3636L63.8202 49.4364L68.9137 49.4364ZM84.8156 49.4364L79.722 49.4364L79.722 23.3636L84.8156 23.3636L84.8156 49.4364ZM89.5542 49.4364L107 49.4364L107 44.2181L94.6477 44.2181L94.6477 39.0182L103.007 39.0182L103.007 33.8L94.6477 33.8L94.6477 28.5818L107 28.5818L107 23.3636L89.5542 23.3636L89.5542 49.4364ZM49.8706 36.509C49.8706 35.3698 49.6577 34.297 49.2317 33.2909C48.8058 32.2727 48.2261 31.3939 47.4924 30.6545C46.7708 29.9031 45.913 29.3091 44.9191 28.8727C43.937 28.4364 42.8899 28.2181 41.7777 28.2181C40.6537 28.2181 39.6007 28.4364 38.6187 28.8727C37.6366 29.3091 36.7788 29.9031 36.0453 30.6545C35.3118 31.3939 34.7319 32.2727 34.306 33.2909C33.8801 34.297 33.6671 35.3698 33.6671 36.509C33.6671 37.6484 33.8801 38.7212 34.306 39.7273C34.7319 40.7212 35.3118 41.594 36.0453 42.3455C36.7788 43.0969 37.6366 43.6909 38.6187 44.1273C39.6007 44.5636 40.6537 44.7819 41.7777 44.7819C42.8899 44.7819 43.937 44.5636 44.9191 44.1273C45.913 43.6909 46.7708 43.0969 47.4924 42.3455C48.2261 41.594 48.8058 40.7212 49.2317 39.7273C49.6577 38.7212 49.8706 37.6484 49.8706 36.509Z" fill="#81BECB" fill-opacity="1.000000" fill-rule="evenodd"/>
	<path id="Знаем, что вам понравится" d="M5.36719 84.7598Q5.36719 84.0801 4.87207 83.6787Q4.37695 83.2773 3.48047 83.2773Q2.73047 83.2773 2.22363 83.6904Q1.7168 84.1035 1.7168 84.7129L0.591797 84.7129Q0.591797 84.0332 0.963867 83.4941Q1.33594 82.9551 2.00391 82.6533Q2.67188 82.3516 3.48047 82.3516Q4.91016 82.3516 5.70117 82.9932Q6.49219 83.6348 6.49219 84.7773Q6.49219 85.3691 6.12891 85.8555Q5.76562 86.3418 5.11523 86.623Q6.62109 87.127 6.62109 88.6211Q6.62109 89.7695 5.76562 90.4434Q4.91016 91.1172 3.48047 91.1172Q2.63086 91.1172 1.93652 90.8154Q1.24219 90.5137 0.855469 89.957Q0.46875 89.4004 0.46875 88.6328L1.59375 88.6328Q1.59375 89.3066 2.12695 89.7549Q2.66016 90.2031 3.48047 90.2031Q4.40039 90.2031 4.94824 89.7754Q5.49609 89.3477 5.49609 88.6445Q5.49609 87.1445 3.63867 87.1152L2.58398 87.1152L2.58398 86.1895L3.63281 86.1895Q4.48828 86.1719 4.92773 85.8027Q5.36719 85.4336 5.36719 84.7598ZM13.2191 91L12.1352 91L12.1352 88.293L9.22305 88.293L9.22305 91L8.1332 91L8.1332 84.6602L9.22305 84.6602L9.22305 87.4082L12.1352 87.4082L12.1352 84.6602L13.2191 84.6602L13.2191 91ZM18.9734 91Q18.8797 90.8125 18.8211 90.332Q18.0652 91.1172 17.0164 91.1172Q16.0789 91.1172 15.4783 90.5869Q14.8777 90.0566 14.8777 89.2422Q14.8777 88.252 15.6307 87.7041Q16.3836 87.1562 17.7488 87.1562L18.8035 87.1562L18.8035 86.6582Q18.8035 86.0898 18.4637 85.7529Q18.1238 85.416 17.4617 85.416Q16.8816 85.416 16.4891 85.709Q16.0965 86.002 16.0965 86.418L15.0066 86.418Q15.0066 85.9434 15.3436 85.501Q15.6805 85.0586 16.2576 84.8008Q16.8348 84.543 17.5262 84.543Q18.6219 84.543 19.243 85.0908Q19.8641 85.6387 19.8875 86.5996L19.8875 89.5176Q19.8875 90.3906 20.1102 90.9062L20.1102 91L18.9734 91ZM17.1746 90.1738Q17.6844 90.1738 18.1414 89.9102Q18.5984 89.6465 18.8035 89.2246L18.8035 87.9238L17.9539 87.9238Q15.9617 87.9238 15.9617 89.0898Q15.9617 89.5996 16.3016 89.8867Q16.6414 90.1738 17.1746 90.1738ZM24.3176 91.1172Q23.0285 91.1172 22.2199 90.2705Q21.4113 89.4238 21.4113 88.0059L21.4113 87.8066Q21.4113 86.8633 21.7717 86.1221Q22.132 85.3809 22.7795 84.9619Q23.427 84.543 24.1828 84.543Q25.4191 84.543 26.1047 85.3574Q26.7902 86.1719 26.7902 87.6895L26.7902 88.1406L22.4953 88.1406Q22.5188 89.0781 23.0432 89.6553Q23.5676 90.2324 24.3762 90.2324Q24.9504 90.2324 25.3488 89.998Q25.7473 89.7637 26.0461 89.377L26.7082 89.8926Q25.9113 91.1172 24.3176 91.1172ZM24.1828 85.4336Q23.5266 85.4336 23.0813 85.9111Q22.6359 86.3887 22.5305 87.25L25.7063 87.25L25.7063 87.168Q25.6594 86.3418 25.2609 85.8877Q24.8625 85.4336 24.1828 85.4336ZM31.7945 89.5645L33.9508 84.6602L35.3043 84.6602L35.3043 91L34.2203 91L34.2203 86.3887L32.1695 91L31.4195 91L29.3277 86.2891L29.3277 91L28.2438 91L28.2438 84.6602L29.65 84.6602L31.7945 89.5645ZM37.1094 92.6992L36.4941 92.2773Q37.0449 91.5098 37.0684 90.6953L37.0684 89.7168L38.1289 89.7168L38.1289 90.5664Q38.1289 91.1582 37.8389 91.75Q37.5488 92.3418 37.1094 92.6992ZM47.4578 91L46.368 91L46.368 88.7031Q45.6531 88.8906 44.9031 88.8906Q43.7137 88.8906 43.0896 88.2812Q42.4656 87.6719 42.4539 86.5469L42.4539 84.6543L43.5379 84.6543L43.5379 86.582Q43.5672 88 44.9031 88Q45.6531 88 46.368 87.8125L46.368 84.6602L47.4578 84.6602L47.4578 91ZM54.0031 85.5391L51.8762 85.5391L51.8762 91L50.7922 91L50.7922 85.5391L48.7062 85.5391L48.7062 84.6602L54.0031 84.6602L54.0031 85.5391ZM54.6246 87.7715Q54.6246 86.8398 54.9908 86.0957Q55.357 85.3516 56.0103 84.9473Q56.6637 84.543 57.5016 84.543Q58.7965 84.543 59.5963 85.4395Q60.3961 86.3359 60.3961 87.8242L60.3961 87.9004Q60.3961 88.8262 60.0416 89.5615Q59.6871 90.2969 59.0279 90.707Q58.3687 91.1172 57.5133 91.1172Q56.2242 91.1172 55.4244 90.2207Q54.6246 89.3242 54.6246 87.8477L54.6246 87.7715ZM55.7144 87.9004Q55.7144 88.9551 56.2037 89.5938Q56.693 90.2324 57.5133 90.2324Q58.3394 90.2324 58.8258 89.585Q59.3121 88.9375 59.3121 87.7715Q59.3121 86.7285 58.817 86.0811Q58.3219 85.4336 57.5016 85.4336Q56.6988 85.4336 56.2066 86.0723Q55.7144 86.7109 55.7144 87.9004ZM65.0258 91L65.0258 84.6602L67.4984 84.6602Q68.7641 84.6602 69.4408 85.1025Q70.1176 85.5449 70.1176 86.4004Q70.1176 86.8398 69.8539 87.1943Q69.5902 87.5488 69.0746 87.7363Q69.6488 87.8711 69.9975 88.2637Q70.3461 88.6562 70.3461 89.2012Q70.3461 90.0742 69.7045 90.5371Q69.0629 91 67.891 91L65.0258 91ZM66.1098 88.2168L66.1098 90.127L67.9027 90.127Q68.5824 90.127 68.9193 89.875Q69.2562 89.623 69.2562 89.166Q69.2562 88.2168 67.8617 88.2168L66.1098 88.2168ZM66.1098 87.3496L67.5101 87.3496Q69.0336 87.3496 69.0336 86.459Q69.0336 85.5684 67.5922 85.5391L66.1098 85.5391L66.1098 87.3496ZM75.7957 91Q75.7019 90.8125 75.6433 90.332Q74.8875 91.1172 73.8387 91.1172Q72.9012 91.1172 72.3006 90.5869Q71.7 90.0566 71.7 89.2422Q71.7 88.252 72.4529 87.7041Q73.2058 87.1562 74.5711 87.1562L75.6258 87.1562L75.6258 86.6582Q75.6258 86.0898 75.2859 85.7529Q74.9461 85.416 74.284 85.416Q73.7039 85.416 73.3113 85.709Q72.9187 86.002 72.9187 86.418L71.8289 86.418Q71.8289 85.9434 72.1658 85.501Q72.5027 85.0586 73.0799 84.8008Q73.657 84.543 74.3484 84.543Q75.4441 84.543 76.0652 85.0908Q76.6863 85.6387 76.7098 86.5996L76.7098 89.5176Q76.7098 90.3906 76.9324 90.9062L76.9324 91L75.7957 91ZM73.9969 90.1738Q74.5066 90.1738 74.9637 89.9102Q75.4207 89.6465 75.6258 89.2246L75.6258 87.9238L74.7762 87.9238Q72.784 87.9238 72.784 89.0898Q72.784 89.5996 73.1238 89.8867Q73.4637 90.1738 73.9969 90.1738ZM82.1594 89.5645L84.3156 84.6602L85.6691 84.6602L85.6691 91L84.5851 91L84.5851 86.3887L82.5344 91L81.7844 91L79.6926 86.2891L79.6926 91L78.6086 91L78.6086 84.6602L80.0148 84.6602L82.1594 89.5645ZM95.7656 91L94.6816 91L94.6816 85.5566L91.7637 85.5566L91.7637 91L90.6738 91L90.6738 84.6602L95.7656 84.6602L95.7656 91ZM97.3187 87.7715Q97.3187 86.8398 97.6849 86.0957Q98.0512 85.3516 98.7045 84.9473Q99.3578 84.543 100.196 84.543Q101.491 84.543 102.29 85.4395Q103.09 86.3359 103.09 87.8242L103.09 87.9004Q103.09 88.8262 102.736 89.5615Q102.381 90.2969 101.722 90.707Q101.063 91.1172 100.207 91.1172Q98.9183 91.1172 98.1185 90.2207Q97.3187 89.3242 97.3187 87.8477L97.3187 87.7715ZM98.4086 87.9004Q98.4086 88.9551 98.8978 89.5938Q99.3871 90.2324 100.207 90.2324Q101.034 90.2324 101.52 89.585Q102.006 88.9375 102.006 87.7715Q102.006 86.7285 101.511 86.0811Q101.016 85.4336 100.196 85.4336Q99.393 85.4336 98.9008 86.0723Q98.4086 86.7109 98.4086 87.9004ZM109.729 91L108.645 91L108.645 88.293L105.733 88.293L105.733 91L104.643 91L104.643 84.6602L105.733 84.6602L105.733 87.4082L108.645 87.4082L108.645 84.6602L109.729 84.6602L109.729 91ZM116.925 87.9004Q116.925 89.3477 116.263 90.2324Q115.601 91.1172 114.47 91.1172Q113.316 91.1172 112.653 90.3848L112.653 93.4375L111.57 93.4375L111.57 84.6602L112.56 84.6602L112.612 85.3633Q113.275 84.543 114.452 84.543Q115.595 84.543 116.26 85.4043Q116.925 86.2656 116.925 87.8008L116.925 87.9004ZM115.841 87.7773Q115.841 86.7051 115.384 86.084Q114.927 85.4629 114.13 85.4629Q113.146 85.4629 112.653 86.3359L112.653 89.3652Q113.14 90.2324 114.142 90.2324Q114.921 90.2324 115.381 89.6143Q115.841 88.9961 115.841 87.7773ZM122.316 91Q122.222 90.8125 122.164 90.332Q121.408 91.1172 120.359 91.1172Q119.421 91.1172 118.821 90.5869Q118.22 90.0566 118.22 89.2422Q118.22 88.252 118.973 87.7041Q119.726 87.1562 121.091 87.1562L122.146 87.1562L122.146 86.6582Q122.146 86.0898 121.806 85.7529Q121.466 85.416 120.804 85.416Q120.224 85.416 119.832 85.709Q119.439 86.002 119.439 86.418L118.349 86.418Q118.349 85.9434 118.686 85.501Q119.023 85.0586 119.6 84.8008Q120.177 84.543 120.869 84.543Q121.964 84.543 122.586 85.0908Q123.207 85.6387 123.23 86.5996L123.23 89.5176Q123.23 90.3906 123.453 90.9062L123.453 91L122.316 91ZM120.517 90.1738Q121.027 90.1738 121.484 89.9102Q121.941 89.6465 122.146 89.2246L122.146 87.9238L121.296 87.9238Q119.304 87.9238 119.304 89.0898Q119.304 89.5996 119.644 89.8867Q119.984 90.1738 120.517 90.1738ZM125.129 91L125.129 84.6602L127.602 84.6602Q128.867 84.6602 129.544 85.1025Q130.221 85.5449 130.221 86.4004Q130.221 86.8398 129.957 87.1943Q129.693 87.5488 129.178 87.7363Q129.752 87.8711 130.101 88.2637Q130.449 88.6562 130.449 89.2012Q130.449 90.0742 129.808 90.5371Q129.166 91 127.994 91L125.129 91ZM126.213 88.2168L126.213 90.127L128.006 90.127Q128.686 90.127 129.022 89.875Q129.359 89.623 129.359 89.166Q129.359 88.2168 127.965 88.2168L126.213 88.2168ZM126.213 87.3496L127.613 87.3496Q129.137 87.3496 129.137 86.459Q129.137 85.5684 127.695 85.5391L126.213 85.5391L126.213 87.3496ZM136.086 84.6602L137.17 84.6602L137.17 91L136.086 91L136.086 86.377L133.162 91L132.078 91L132.078 84.6602L133.162 84.6602L133.162 89.2891L136.086 84.6602ZM143.721 85.5391L141.595 85.5391L141.595 91L140.511 91L140.511 85.5391L138.425 85.5391L138.425 84.6602L143.721 84.6602L143.721 85.5391ZM146.95 90.2324Q147.53 90.2324 147.964 89.8809Q148.398 89.5293 148.445 89.002L149.47 89.002Q149.441 89.5469 149.095 90.0391Q148.749 90.5312 148.172 90.8242Q147.595 91.1172 146.95 91.1172Q145.655 91.1172 144.891 90.2529Q144.126 89.3887 144.126 87.8887L144.126 87.707Q144.126 86.7812 144.466 86.0605Q144.806 85.3398 145.442 84.9414Q146.077 84.543 146.945 84.543Q148.011 84.543 148.717 85.1816Q149.423 85.8203 149.47 86.8398L148.445 86.8398Q148.398 86.2246 147.979 85.8291Q147.56 85.4336 146.945 85.4336Q146.118 85.4336 145.664 86.0283Q145.21 86.623 145.21 87.748L145.21 87.9531Q145.21 89.0488 145.661 89.6406Q146.112 90.2324 146.95 90.2324ZM155.634 84.6602L155.634 91L154.545 91L154.545 88.5332L152.91 88.5332L151.416 91L150.244 91L151.837 88.3691Q151.228 88.1465 150.903 87.6807Q150.578 87.2148 150.578 86.5938Q150.578 85.7266 151.228 85.1963Q151.879 84.666 152.968 84.6602L155.634 84.6602ZM151.668 86.6055Q151.668 87.0684 151.984 87.3525Q152.3 87.6367 152.822 87.6426L154.545 87.6426L154.545 85.5391L152.986 85.5391Q152.382 85.5391 152.025 85.835Q151.668 86.1309 151.668 86.6055Z" fill="#81BECB" fill-opacity="1.000000" fill-rule="evenodd"/>
</svg>
