<svg width="29.000000" height="29.000000" viewBox="0 0 29 29" fill="none" xmlns="http://www.w3.org/2000/svg" xmlns:xlink="http://www.w3.org/1999/xlink">
	<desc>
			Created with Pixso.
	</desc>
	<defs>
		<clipPath id="clip2_179">
			<rect id="loupe (9) 1" width="29.000000" height="29.000000" fill="white" fill-opacity="0"/>
		</clipPath>
	</defs>
	<rect id="loupe (9) 1" width="29.000000" height="29.000000" fill="#FFFFFF" fill-opacity="0"/>
	<g clip-path="url(#clip2_179)">
		<path id="Vector" d="M12.771 0C5.72925 0 0 5.72925 0 12.771C0 19.8131 5.72925 25.542 12.771 25.542C19.8132 25.542 25.542 19.8131 25.542 12.771C25.542 5.72925 19.8132 0 12.771 0ZM12.771 23.1843C7.02905 23.1843 2.35767 18.5128 2.35767 12.771C2.35767 7.02917 7.02905 2.35767 12.771 2.35767C18.5129 2.35767 23.1843 7.02917 23.1843 12.771C23.1843 18.5128 18.5129 23.1843 12.771 23.1843Z" fill="#FFFFFF" fill-opacity="1.000000" fill-rule="nonzero"/>
		<path id="Vector" d="M28.6545 26.9877L21.8958 20.2289C21.4351 19.7683 20.6892 19.7683 20.2288 20.2289C19.7681 20.689 19.7681 21.4357 20.2288 21.8958L26.9875 28.6545C27.2178 28.8849 27.5193 29 27.821 29C28.1223 29 28.4241 28.8849 28.6545 28.6545C29.115 28.1945 29.115 27.4478 28.6545 26.9877Z" fill="#FFFFFF" fill-opacity="1.000000" fill-rule="nonzero"/>
	</g>
</svg>
